<svg width="304.089844" height="43.957031" viewBox="0 0 304.09 43.957" fill="none" xmlns="http://www.w3.org/2000/svg" xmlns:xlink="http://www.w3.org/1999/xlink">
	<desc>
			Created with Pixso.
	</desc>
	<defs/>
	<path id="Bloom Beauty" d="" fill="#F09A9B" fill-opacity="1.000000" fill-rule="evenodd"/>
	<path id="Bloom Beauty" d="M170.43 17.28Q169.75 16.98 169 16.85Q171.02 16.14 172.34 14.75Q172.57 14.51 172.78 14.25Q173 13.98 173.19 13.68Q174.19 12.08 174.19 9.84Q174.19 8.53 173.78 7.36Q173.5 6.58 173.04 5.87Q173.01 5.83 172.99 5.78Q171.85 4.06 169.66 3.03Q167.41 1.97 164.3 1.97L152.63 1.97L152.63 32.55L164.87 32.55Q167.91 32.55 170.19 31.48Q172.26 30.49 173.46 28.86Q173.58 28.7 173.69 28.53Q174.13 27.85 174.41 27.11Q174.9 25.81 174.9 24.33Q174.9 23.01 174.5 21.83Q174.07 20.56 173.18 19.45Q171.99 17.95 170.43 17.28ZM271.74 25.82L271.74 12.4L277.64 12.4L277.64 8.31L271.74 8.31L271.74 2.28L266.68 2.28L266.68 8.31L263.82 8.31L263.82 12.4L266.68 12.4L266.68 25.82Q266.68 29.33 268.43 30.92Q268.46 30.95 268.49 30.97Q270.29 32.55 273.68 32.55L277.64 32.55L277.64 28.37L274.56 28.37Q273.02 28.37 272.38 27.78Q271.74 27.18 271.74 25.82ZM163.86 14.82L157.65 14.82L157.65 6.06L163.86 6.06Q166.32 6.06 167.7 7.23Q168.14 7.6 168.43 8.05Q169.09 9.04 169.09 10.47Q169.09 11.97 168.38 12.98Q168.1 13.38 167.7 13.7Q166.32 14.82 163.86 14.82ZM202.4 22.31Q202.58 21.2 202.58 19.83Q202.58 16.42 201.16 13.77Q201.12 13.69 201.07 13.62Q200.3 12.21 199.2 11.13Q198.18 10.13 196.9 9.41Q196.64 9.27 196.37 9.14Q193.88 7.91 190.78 7.91Q187.39 7.91 184.73 9.31Q184.6 9.38 184.47 9.46Q183.27 10.13 182.31 11.04Q181.06 12.23 180.2 13.83Q178.69 16.67 178.69 20.41Q178.69 24.15 180.25 26.99Q181.14 28.62 182.42 29.83Q183.38 30.72 184.55 31.39Q184.94 31.61 185.34 31.8Q187.79 32.95 190.78 32.95Q194.69 32.95 197.44 31.16Q197.69 31 197.93 30.82Q199.52 29.64 200.57 28.1Q201.42 26.84 201.91 25.33L196.5 25.33Q195.77 26.82 194.58 27.66Q193.06 28.73 190.78 28.73Q189 28.73 187.56 28.02Q186.74 27.61 186.02 26.97Q185.43 26.42 184.99 25.77Q184.02 24.31 183.88 22.31L202.4 22.31ZM207.35 13.85Q205.84 16.67 205.84 20.32Q205.84 23.86 207.26 26.68Q207.3 26.77 207.35 26.86Q208.44 28.93 210.1 30.35Q210.74 30.9 211.46 31.35Q212.59 32.04 213.81 32.43Q215.41 32.95 217.18 32.95Q219.99 32.95 222.2 31.81Q224.4 30.66 225.68 28.94L225.68 32.55L230.74 32.55L230.74 8.31L225.68 8.31L225.68 11.83Q224.4 10.16 222.26 9.04Q220.13 7.91 217.28 7.91Q215.28 7.91 213.51 8.53Q212.46 8.9 211.49 9.48Q210.6 10 209.85 10.67Q208.36 11.98 207.35 13.85ZM259.29 32.55L259.29 8.31L254.27 8.31L254.27 21.82Q254.27 25.01 252.68 26.75Q252.65 26.78 252.62 26.82Q252.22 27.24 251.74 27.56Q250.29 28.55 248.16 28.55Q246.03 28.55 244.57 27.55Q244.11 27.24 243.71 26.82Q242.09 25.08 242.09 21.82L242.09 8.31L237.12 8.31L237.12 22.56Q237.12 25.86 238.41 28.2Q239.22 29.66 240.41 30.68Q241.13 31.28 241.97 31.73Q242.02 31.75 242.06 31.77Q244.29 32.91 247.11 32.91Q248.48 32.91 249.76 32.56Q250.48 32.36 251.17 32.05Q252.95 31.25 254.09 29.91Q254.19 29.81 254.27 29.7L254.27 32.55L259.29 32.55ZM289.21 43.95L304.08 8.31L298.89 8.31L291.81 26.79L284.99 8.31L279.4 8.31L288.95 32.16L284.02 43.95L289.21 43.95ZM196.56 15.24Q197.31 16.54 197.34 18.26L183.92 18.26Q184.19 16.1 185.34 14.63Q185.69 14.18 186.12 13.79Q186.89 13.1 187.79 12.7Q189.05 12.13 190.56 12.13Q192.65 12.13 194.24 13.02Q194.83 13.35 195.36 13.81Q196.1 14.45 196.56 15.24ZM224.63 16.05Q225.68 17.9 225.68 20.41Q225.68 22.92 224.63 24.79Q223.78 26.34 222.47 27.27Q222.21 27.46 221.93 27.62Q221.12 28.09 220.25 28.33Q219.33 28.59 218.33 28.59Q217.65 28.59 216.99 28.46Q215.83 28.23 214.74 27.6Q214.42 27.41 214.12 27.19Q212.85 26.25 212.01 24.72Q210.98 22.83 210.98 20.32Q210.98 17.82 212.01 15.99Q212.83 14.54 214.05 13.65Q214.37 13.41 214.72 13.22Q215.52 12.76 216.39 12.53Q217.32 12.27 218.33 12.27Q219.33 12.27 220.25 12.53Q221.12 12.77 221.93 13.24Q222.25 13.42 222.55 13.64Q223.8 14.56 224.63 16.05ZM168.42 27.24Q166.97 28.46 164.43 28.46L157.65 28.46L157.65 18.91L164.26 18.91Q166.62 18.91 168.12 20.05Q168.23 20.14 168.34 20.23Q168.9 20.71 169.25 21.31Q169.88 22.36 169.88 23.8Q169.88 25.33 169.18 26.39Q168.87 26.86 168.42 27.24Z" fill="#383838" fill-opacity="1.000000" fill-rule="evenodd"/>
	<path id="Bloom Beauty" d="M32.73 32.55L32.73 -0.01L27.72 -0.01L27.72 32.55L32.73 32.55ZM17.8 17.28Q17.12 16.98 16.37 16.85Q18.39 16.14 19.71 14.75Q19.94 14.51 20.15 14.25Q20.37 13.98 20.55 13.68Q21.56 12.08 21.56 9.84Q21.56 8.53 21.14 7.36Q20.86 6.58 20.41 5.87Q20.38 5.83 20.35 5.78Q19.21 4.06 17.02 3.03Q14.78 1.97 11.66 1.97L0 1.97L0 32.55L12.23 32.55Q15.27 32.55 17.55 31.48Q19.63 30.49 20.82 28.86Q20.94 28.7 21.05 28.53Q21.49 27.85 21.77 27.11Q22.26 25.81 22.26 24.33Q22.26 23.01 21.87 21.83Q21.44 20.56 20.55 19.45Q19.35 17.95 17.8 17.28ZM11.22 14.82L5.01 14.82L5.01 6.06L11.22 6.06Q13.68 6.06 15.07 7.23Q15.5 7.6 15.8 8.05Q16.45 9.04 16.45 10.47Q16.45 11.97 15.74 12.98Q15.46 13.38 15.07 13.7Q13.68 14.82 11.22 14.82ZM44.86 31.99Q47.15 32.95 49.85 32.95Q52.46 32.95 54.74 32.07Q55.49 31.78 56.21 31.39Q57.54 30.67 58.62 29.66Q59.86 28.5 60.76 26.97Q60.96 26.63 61.13 26.28Q62.44 23.67 62.44 20.41Q62.44 16.97 61.03 14.26Q60.92 14.06 60.81 13.85Q59.85 12.17 58.48 10.95Q57.52 10.09 56.36 9.46Q55.81 9.16 55.24 8.91Q52.87 7.91 50.07 7.91Q47.23 7.91 44.83 8.94Q44.29 9.18 43.78 9.46Q42.62 10.09 41.66 10.95Q40.29 12.17 39.33 13.85Q39.23 14.03 39.14 14.21Q37.71 16.94 37.71 20.41Q37.71 24.15 39.29 26.99Q40.2 28.61 41.49 29.82Q42.46 30.72 43.65 31.39Q44.24 31.73 44.86 31.99ZM72.94 31.99Q75.23 32.95 77.92 32.95Q80.53 32.95 82.81 32.07Q83.56 31.78 84.28 31.39Q85.62 30.67 86.69 29.66Q87.94 28.5 88.83 26.97Q89.03 26.63 89.21 26.28Q90.51 23.67 90.51 20.41Q90.51 16.97 89.1 14.26Q88.99 14.06 88.88 13.85Q87.92 12.17 86.55 10.95Q85.59 10.09 84.43 9.46Q83.88 9.16 83.31 8.91Q80.94 7.91 78.15 7.91Q75.3 7.91 72.9 8.94Q72.37 9.18 71.85 9.46Q70.69 10.09 69.73 10.95Q68.36 12.17 67.4 13.85Q67.3 14.03 67.21 14.21Q65.78 16.94 65.78 20.41Q65.78 24.15 67.36 26.99Q68.27 28.61 69.56 29.82Q70.53 30.72 71.72 31.39Q72.31 31.73 72.94 31.99ZM129.74 8.99Q127.55 7.91 124.82 7.91Q123.42 7.91 122.1 8.27Q120.92 8.59 119.81 9.21Q118.11 10.16 117.06 11.59Q116.68 12.12 116.38 12.71Q115.71 11.45 114.73 10.5Q113.9 9.71 112.86 9.15Q112.71 9.07 112.55 8.99Q110.38 7.91 107.67 7.91Q106.05 7.91 104.59 8.38Q104.09 8.54 103.62 8.75Q102.1 9.42 101 10.52Q100.74 10.79 100.49 11.08L100.49 8.31L95.48 8.31L95.48 32.55L100.49 32.55L100.49 19Q100.49 15.78 102.1 14.06Q102.12 14.03 102.14 14.01Q102.56 13.57 103.05 13.24Q104.5 12.27 106.61 12.27Q108.75 12.27 110.2 13.28Q110.66 13.59 111.05 14.01Q111.06 14.02 111.07 14.03Q112.69 15.76 112.69 19L112.69 32.55L117.66 32.55L117.66 19Q117.66 15.78 119.26 14.06Q119.28 14.03 119.3 14.01Q119.72 13.57 120.22 13.24Q121.67 12.27 123.77 12.27Q125.89 12.27 127.34 13.26Q127.81 13.58 128.21 14.01Q128.22 14.02 128.23 14.03Q129.84 15.76 129.84 19L129.84 32.55L134.81 32.55L134.81 18.26Q134.81 14.96 133.51 12.63Q132.68 11.13 131.45 10.1Q130.76 9.53 129.95 9.1Q129.84 9.05 129.74 8.99ZM51.73 28.36Q50.82 28.59 49.85 28.59Q48.17 28.59 46.8 27.93Q45.7 27.41 44.81 26.46Q44.75 26.4 44.7 26.34Q42.81 24.21 42.81 20.41Q42.81 17.77 43.78 15.95Q44.53 14.52 45.7 13.64Q46.03 13.4 46.39 13.2Q47.08 12.81 47.83 12.58Q48.86 12.27 49.98 12.27Q51.11 12.27 52.15 12.59Q52.89 12.81 53.59 13.2Q53.96 13.4 54.31 13.66Q55.49 14.53 56.27 15.95Q57.28 17.77 57.28 20.41Q57.28 23.05 56.23 24.89Q55.38 26.39 54.1 27.28Q53.8 27.49 53.48 27.67Q52.64 28.13 51.73 28.36ZM79.8 28.36Q78.89 28.59 77.92 28.59Q76.24 28.59 74.87 27.93Q73.78 27.41 72.88 26.46Q72.83 26.4 72.77 26.34Q70.88 24.21 70.88 20.41Q70.88 17.77 71.85 15.95Q72.61 14.52 73.77 13.64Q74.1 13.4 74.46 13.2Q75.16 12.81 75.9 12.58Q76.93 12.27 78.05 12.27Q79.18 12.27 80.22 12.59Q80.96 12.81 81.66 13.2Q82.04 13.4 82.38 13.66Q83.56 14.53 84.34 15.95Q85.35 17.77 85.35 20.41Q85.35 23.05 84.3 24.89Q83.45 26.39 82.17 27.28Q81.87 27.49 81.55 27.67Q80.71 28.13 79.8 28.36ZM15.79 27.24Q14.34 28.46 11.79 28.46L5.01 28.46L5.01 18.91L11.62 18.91Q13.99 18.91 15.48 20.05Q15.59 20.14 15.7 20.23Q16.26 20.71 16.62 21.31Q17.25 22.36 17.25 23.8Q17.25 25.33 16.54 26.39Q16.23 26.86 15.79 27.24Z" fill="#F5A3B7" fill-opacity="1.000000" fill-rule="evenodd"/>
</svg>
